<?xml version="1.0" standalone="no"?>
<!DOCTYPE svg PUBLIC "-//W3C//DTD SVG 20010904//EN"
 "http://www.w3.org/TR/2001/REC-SVG-20010904/DTD/svg10.dtd">
<svg version="1.0" xmlns="http://www.w3.org/2000/svg"
 width="256.000000pt" height="256.000000pt" viewBox="0 0 256.000000 256.000000"
 preserveAspectRatio="xMidYMid meet">
<metadata>
Created by potrace 1.13, written by Peter Selinger 2001-2015
</metadata>
<g transform="translate(0.000000,256.000000) scale(0.100000,-0.100000)"
fill="#000000" stroke="none">
<path d="M1506 2328 c-11 -15 -16 -45 -16 -89 0 -104 -15 -99 324 -99 169 0
304 -4 329 -11 59 -14 131 -70 164 -126 l28 -48 0 -670 0 -670 -27 -47 c-15
-25 -46 -61 -68 -78 -70 -56 -102 -60 -426 -60 -291 0 -293 0 -308 -22 -25
-35 -22 -142 5 -169 20 -20 28 -20 342 -17 311 3 324 4 382 27 106 42 200 123
258 221 55 95 57 118 57 813 0 544 -2 648 -16 707 -38 167 -198 317 -373 350
-30 5 -186 10 -347 10 -291 0 -293 0 -308 -22z"/>
<path d="M884 2259 l-29 -30 -3 -260 -3 -259 -380 0 c-417 0 -423 -1 -454 -60
-13 -24 -15 -84 -15 -367 0 -320 1 -340 20 -371 11 -18 32 -37 46 -42 15 -6
182 -10 404 -10 l379 0 3 -259 3 -260 29 -30 c25 -26 38 -31 75 -31 l46 0 472
472 c322 321 476 483 483 505 9 24 8 39 -3 65 -9 19 -205 223 -484 501 l-468
467 -46 0 c-37 0 -50 -5 -75 -31z"/>
</g>
</svg>
